<?xml version="1.0" standalone="no"?>
<!DOCTYPE svg PUBLIC "-//W3C//DTD SVG 20010904//EN"
 "http://www.w3.org/TR/2001/REC-SVG-20010904/DTD/svg10.dtd">
<svg version="1.0" xmlns="http://www.w3.org/2000/svg"
 width="700.000000pt" height="700.000000pt" viewBox="0 0 700.000000 700.000000"
 preserveAspectRatio="xMidYMid meet">
<metadata>
Created by potrace 1.14, written by Peter Selinger 2001-2017
</metadata>
<g transform="translate(0.000000,700.000000) scale(0.100000,-0.100000)"
fill="#000000" stroke="none">
<path d="M1389 6996 c-2 -2 -26 -6 -54 -9 -125 -14 -245 -46 -380 -100 -199
-80 -350 -180 -505 -336 -182 -183 -304 -381 -373 -606 -45 -147 -46 -152 -67
-300 -5 -33 -8 -982 -8 -2110 0 -1959 1 -2055 19 -2160 31 -185 97 -364 200
-545 64 -112 193 -264 321 -377 49 -43 200 -144 279 -186 132 -70 326 -132
494 -158 113 -17 4152 -16 4274 1 504 70 939 386 1160 842 92 189 145 398 151
585 6 215 2 4055 -4 4108 -32 272 -137 534 -301 750 -209 277 -502 470 -850
561 -33 8 -78 18 -100 20 -22 3 -58 10 -80 14 -38 9 -4167 14 -4176 6z"/>
</g>
</svg>
