<svg width="45" height="42" viewBox="0 0 45 42" fill="none" xmlns="http://www.w3.org/2000/svg">
<path d="M44.4591 13.1326C43.0865 0.941655 27.8494 1.08341 20.8574 4.20201L20.8476 0L16.6404 1.26567L15.228 7.1586C7.00283 11.8163 0.438551 20.2304 0.000931009 28.5636C-0.0985279 37.6966 7.78857 41.8987 15.1485 41.767C20.2805 41.7062 25.6513 39.752 31.231 36.3195C32.0565 38.4357 33.0909 40.0457 34.2248 41.4025C35.458 38.5876 36.4129 35.0235 37.109 30.7709C41.9626 24.8172 44.6182 18.904 44.4591 13.1326ZM17.5753 11.5935V17.6181H16.0437L17.5753 11.5935ZM14.4025 10.8746L12.851 17.6383L8.26597 17.6181C9.82747 14.8134 11.8863 12.5757 14.4025 10.8746ZM10.8718 27.713C10.5933 29.8089 10.3646 30.9329 9.77775 30.8519C9.10142 30.6089 8.78316 28.8673 8.58424 27.713H10.8718ZM5.16285 24.4931C6.34642 30.4974 7.62943 35.5601 10.7226 35.874C12.0852 35.7728 13.3284 33.7174 14.2733 27.7029H17.5555V30.6899H20.7779V27.7232H23.4235V30.6697H26.8051V27.7232H29.3512L30.326 33.6768C18.7887 40.9064 0.816494 38.9522 5.16285 24.4931ZM33.8368 33.8085C32.9219 33.1605 32.6334 30.5786 32.5836 27.713L34.8215 27.7232C34.7817 30.9227 34.5231 33.2516 33.8368 33.8085ZM37.9842 22.2858V17.6688H32.335V14.9247H29.3314V17.5573H26.7454V14.9247H23.4632V17.5878H20.8973V7.05735C34.3043 2.38958 43.2059 9.96333 37.9842 22.2858Z" fill="#0A083A"/>
</svg>
